<svg width="162" height="162" viewBox="0 0 162 162" fill="none" xmlns="http://www.w3.org/2000/svg">
<circle cx="81" cy="81" r="73.1017" fill="#F9FAFF" stroke="#F9FAFF" stroke-width="14.4144"/>
<path d="M6 6C6 6 10.7184 29.1231 13.7163 51.8615L35.0693 32.3377L56.4223 12.8138L6 6Z" fill="#F9FAFF"/>
<path d="M156 6L118.5 11.0676L150.932 45.0203L156 6Z" fill="#F9FAFF"/>
<path d="M6 156L43.5 150.932L27.9846 134.97L12.4692 119.007C9.56739 138.517 6 156 6 156Z" fill="#F9FAFF"/>
<path d="M118.5 150.932L156 156L150.932 119.007L118.5 150.932Z" fill="#F9FAFF"/>
<circle cx="81" cy="81" r="61.4054" fill="#F9FAFF" stroke="#9B69C8" stroke-width="12.1081"/>
<path d="M18 18C18 18 21.9634 37.4234 24.4817 56.5236L42.4182 40.1236L60.3547 23.7236L18 18Z" fill="#9B69C8"/>
<path d="M144 18L112.5 22.2568L139.743 50.777L144 18Z" fill="#9B69C8"/>
<path d="M18 144L49.5 139.743L36.4671 126.334L23.4342 112.926C20.9966 129.315 18 144 18 144Z" fill="#9B69C8"/>
<path d="M112.5 139.743L144 144L139.743 112.926L112.5 139.743Z" fill="#9B69C8"/>
<circle cx="81" cy="81" r="40.6486" fill="#9B69C8"/>
</svg>
